<svg xmlns="http://www.w3.org/2000/svg" xmlns:xlink="http://www.w3.org/1999/xlink" width="500" zoomAndPan="magnify" viewBox="0 0 375 149.999998" height="200" preserveAspectRatio="xMidYMid meet" version="1.0"><defs><g/><clipPath id="f8172cf5ca"><path d="M 18.757812 16.589844 L 356.242188 16.589844 L 356.242188 121.589844 L 18.757812 121.589844 Z M 18.757812 16.589844 " clip-rule="nonzero"/></clipPath><clipPath id="c38bbc2a95"><path d="M 57.050781 108.589844 L 317.949219 108.589844 L 317.949219 133.410156 L 57.050781 133.410156 Z M 57.050781 108.589844 " clip-rule="nonzero"/></clipPath></defs><rect x="-37.5" width="450" fill="#ffffff" y="-15" height="179.999997" fill-opacity="1"/><rect x="-37.5" width="450" fill="#ffffff" y="-15" height="179.999997" fill-opacity="1"/><rect x="-37.5" width="450" fill="#f1efe7" y="-15" height="179.999997" fill-opacity="1"/><g clip-path="url(#f8172cf5ca)"><path stroke-linecap="butt" transform="matrix(0.75, 0, 0, 0.751342, 18.759265, 16.590874)" fill="none" stroke-linejoin="miter" d="M -0.00193708 -0.00137174 L 449.977256 -0.00137174 L 449.977256 139.748634 L -0.00193708 139.748634 L -0.00193708 -0.00137174 " stroke="#060606" stroke-width="8" stroke-opacity="1" stroke-miterlimit="4"/></g><g fill="#060606" fill-opacity="1"><g transform="translate(125.48161, 88.215872)"><g><path d="M -1.15625 8.40625 C 0.25 8.269531 1.410156 7.859375 2.328125 7.171875 C 3.242188 6.492188 3.941406 5.363281 4.421875 3.78125 C 4.910156 2.195312 5.15625 0.0351562 5.15625 -2.703125 L 5.15625 -30.09375 C 5.15625 -31.363281 5.0625 -32.28125 4.875 -32.84375 C 4.6875 -33.414062 4.332031 -33.800781 3.8125 -34 C 3.300781 -34.195312 2.5 -34.332031 1.40625 -34.40625 L 1.40625 -35.40625 C 3.070312 -35.300781 5.585938 -35.25 8.953125 -35.25 C 12.378906 -35.25 15.007812 -35.300781 16.84375 -35.40625 L 16.84375 -34.40625 C 15.71875 -34.332031 14.90625 -34.195312 14.40625 -34 C 13.90625 -33.800781 13.5625 -33.414062 13.375 -32.84375 C 13.1875 -32.28125 13.09375 -31.363281 13.09375 -30.09375 L 13.09375 -8.75 C 13.09375 -4.050781 12.8125 -0.71875 12.25 1.25 C 11.550781 3.6875 10.054688 5.65625 7.765625 7.15625 C 5.484375 8.65625 2.507812 9.40625 -1.15625 9.40625 Z M -1.15625 8.40625 "/></g></g></g><g fill="#060606" fill-opacity="1"><g transform="translate(142.178795, 88.215872)"><g><path d="M 35.59375 -2.203125 C 34.695312 -1.171875 33.734375 -0.429688 32.703125 0.015625 C 31.671875 0.472656 30.421875 0.703125 28.953125 0.703125 C 27.015625 0.703125 25.488281 0.296875 24.375 -0.515625 C 23.257812 -1.335938 22.535156 -2.734375 22.203125 -4.703125 L 21.296875 -9.703125 C 20.867188 -12.128906 20.34375 -13.914062 19.71875 -15.0625 C 19.101562 -16.21875 18.082031 -16.796875 16.65625 -16.796875 L 13.40625 -16.796875 L 13.40625 -5.296875 C 13.40625 -4.035156 13.492188 -3.117188 13.671875 -2.546875 C 13.859375 -1.984375 14.203125 -1.597656 14.703125 -1.390625 C 15.203125 -1.191406 16.019531 -1.0625 17.15625 -1 L 17.15625 0 C 15.351562 -0.101562 12.832031 -0.15625 9.59375 -0.15625 C 6.03125 -0.15625 3.398438 -0.101562 1.703125 0 L 1.703125 -1 C 2.796875 -1.0625 3.601562 -1.191406 4.125 -1.390625 C 4.644531 -1.597656 4.992188 -1.984375 5.171875 -2.546875 C 5.359375 -3.117188 5.453125 -4.035156 5.453125 -5.296875 L 5.453125 -30.09375 C 5.453125 -31.363281 5.359375 -32.28125 5.171875 -32.84375 C 4.992188 -33.414062 4.644531 -33.800781 4.125 -34 C 3.601562 -34.195312 2.796875 -34.332031 1.703125 -34.40625 L 1.703125 -35.40625 C 3.398438 -35.300781 5.929688 -35.25 9.296875 -35.25 L 14.84375 -35.296875 C 15.507812 -35.328125 16.28125 -35.34375 17.15625 -35.34375 C 21.75 -35.34375 25.203125 -34.59375 27.515625 -33.09375 C 29.835938 -31.59375 31 -29.445312 31 -26.65625 C 31 -24.28125 30.128906 -22.191406 28.390625 -20.390625 C 26.660156 -18.597656 23.796875 -17.46875 19.796875 -17 C 22.796875 -16.726562 25.03125 -16.078125 26.5 -15.046875 C 27.96875 -14.015625 28.914062 -12.46875 29.34375 -10.40625 L 30.5 -5.25 C 30.769531 -3.914062 31.078125 -2.984375 31.421875 -2.453125 C 31.773438 -1.921875 32.269531 -1.65625 32.90625 -1.65625 C 33.300781 -1.6875 33.640625 -1.785156 33.921875 -1.953125 C 34.203125 -2.117188 34.53125 -2.398438 34.90625 -2.796875 Z M 16.5 -34.40625 C 15.601562 -34.40625 14.945312 -34.285156 14.53125 -34.046875 C 14.113281 -33.816406 13.820312 -33.398438 13.65625 -32.796875 C 13.488281 -32.203125 13.40625 -31.300781 13.40625 -30.09375 L 13.40625 -17.796875 L 15.546875 -17.796875 C 18.285156 -17.796875 20.160156 -18.519531 21.171875 -19.96875 C 22.191406 -21.425781 22.703125 -23.46875 22.703125 -26.09375 C 22.703125 -28.832031 22.21875 -30.898438 21.25 -32.296875 C 20.28125 -33.703125 18.695312 -34.40625 16.5 -34.40625 Z M 16.5 -34.40625 "/></g></g></g><g fill="#060606" fill-opacity="1"><g transform="translate(175.273435, 88.215872)"><g><path d="M 14.09375 -26.546875 C 17.925781 -26.546875 20.925781 -25.453125 23.09375 -23.265625 C 25.257812 -21.085938 26.34375 -17.632812 26.34375 -12.90625 C 26.34375 -8.164062 25.257812 -4.710938 23.09375 -2.546875 C 20.925781 -0.378906 17.925781 0.703125 14.09375 0.703125 C 10.300781 0.703125 7.3125 -0.378906 5.125 -2.546875 C 2.9375 -4.710938 1.84375 -8.164062 1.84375 -12.90625 C 1.84375 -17.632812 2.9375 -21.085938 5.125 -23.265625 C 7.3125 -25.453125 10.300781 -26.546875 14.09375 -26.546875 Z M 14.09375 -25.546875 C 12.664062 -25.546875 11.523438 -24.503906 10.671875 -22.421875 C 9.828125 -20.335938 9.40625 -17.164062 9.40625 -12.90625 C 9.40625 -8.632812 9.828125 -5.460938 10.671875 -3.390625 C 11.523438 -1.328125 12.664062 -0.296875 14.09375 -0.296875 C 15.5625 -0.296875 16.710938 -1.320312 17.546875 -3.375 C 18.378906 -5.425781 18.796875 -8.601562 18.796875 -12.90625 C 18.796875 -17.195312 18.367188 -20.375 17.515625 -22.4375 C 16.671875 -24.507812 15.53125 -25.546875 14.09375 -25.546875 Z M 14.09375 -25.546875 "/></g></g></g><g fill="#060606" fill-opacity="1"><g transform="translate(202.019072, 88.215872)"><g><path d="M 11.09375 -26.546875 C 12.363281 -26.546875 13.53125 -26.382812 14.59375 -26.0625 C 15.664062 -25.75 16.484375 -25.394531 17.046875 -25 C 17.378906 -24.769531 17.679688 -24.65625 17.953125 -24.65625 C 18.253906 -24.65625 18.507812 -24.8125 18.71875 -25.125 C 18.9375 -25.4375 19.082031 -25.894531 19.15625 -26.5 L 20.203125 -26.5 C 20.066406 -24.800781 20 -21.867188 20 -17.703125 L 18.953125 -17.703125 C 18.648438 -19.898438 17.988281 -21.738281 16.96875 -23.21875 C 15.957031 -24.707031 14.484375 -25.453125 12.546875 -25.453125 C 11.546875 -25.453125 10.71875 -25.164062 10.0625 -24.59375 C 9.414062 -24.03125 9.09375 -23.25 9.09375 -22.25 C 9.09375 -21.113281 9.476562 -20.132812 10.25 -19.3125 C 11.019531 -18.5 12.21875 -17.507812 13.84375 -16.34375 L 15.296875 -15.296875 C 17.328125 -13.765625 18.828125 -12.398438 19.796875 -11.203125 C 20.765625 -10.003906 21.25 -8.503906 21.25 -6.703125 C 21.25 -5.234375 20.820312 -3.929688 19.96875 -2.796875 C 19.125 -1.660156 17.984375 -0.789062 16.546875 -0.1875 C 15.117188 0.40625 13.535156 0.703125 11.796875 0.703125 C 9.960938 0.703125 8.394531 0.351562 7.09375 -0.34375 C 6.03125 -0.882812 5.265625 -1.238281 4.796875 -1.40625 C 4.460938 -1.5 4.171875 -1.382812 3.921875 -1.0625 C 3.671875 -0.75 3.476562 -0.28125 3.34375 0.34375 L 2.296875 0.34375 C 2.429688 -1.550781 2.5 -4.882812 2.5 -9.65625 L 3.546875 -9.65625 C 4.210938 -3.519531 6.460938 -0.453125 10.296875 -0.453125 C 11.265625 -0.453125 12.085938 -0.742188 12.765625 -1.328125 C 13.453125 -1.910156 13.796875 -2.800781 13.796875 -4 C 13.796875 -4.9375 13.585938 -5.769531 13.171875 -6.5 C 12.753906 -7.226562 12.226562 -7.875 11.59375 -8.4375 C 10.96875 -9.007812 10.019531 -9.796875 8.75 -10.796875 C 7.25 -11.992188 6.109375 -12.957031 5.328125 -13.6875 C 4.546875 -14.425781 3.878906 -15.296875 3.328125 -16.296875 C 2.773438 -17.296875 2.5 -18.414062 2.5 -19.65625 C 2.5 -21.78125 3.332031 -23.457031 5 -24.6875 C 6.664062 -25.925781 8.695312 -26.546875 11.09375 -26.546875 Z M 11.09375 -26.546875 "/></g></g></g><g fill="#060606" fill-opacity="1"><g transform="translate(223.615491, 88.215872)"><g><path d="M 7.796875 0.34375 C 5.660156 0.34375 4.066406 -0.203125 3.015625 -1.296875 C 1.972656 -2.398438 1.453125 -3.851562 1.453125 -5.65625 C 1.453125 -7.15625 1.84375 -8.394531 2.625 -9.375 C 3.40625 -10.351562 4.351562 -11.109375 5.46875 -11.640625 C 6.59375 -12.179688 8.019531 -12.75 9.75 -13.34375 C 11.582031 -13.976562 12.921875 -14.550781 13.765625 -15.0625 C 14.617188 -15.582031 15.046875 -16.296875 15.046875 -17.203125 L 15.046875 -21.09375 C 15.046875 -22.5 14.71875 -23.59375 14.0625 -24.375 C 13.414062 -25.15625 12.410156 -25.546875 11.046875 -25.546875 C 9.453125 -25.546875 8.238281 -25.144531 7.40625 -24.34375 C 8.332031 -24.007812 9.050781 -23.507812 9.5625 -22.84375 C 10.082031 -22.175781 10.34375 -21.394531 10.34375 -20.5 C 10.34375 -19.363281 9.957031 -18.460938 9.1875 -17.796875 C 8.425781 -17.128906 7.5 -16.796875 6.40625 -16.796875 C 5.238281 -16.796875 4.335938 -17.160156 3.703125 -17.890625 C 3.066406 -18.628906 2.75 -19.550781 2.75 -20.65625 C 2.75 -21.582031 2.972656 -22.367188 3.421875 -23.015625 C 3.867188 -23.671875 4.5625 -24.28125 5.5 -24.84375 C 6.394531 -25.382812 7.5 -25.800781 8.8125 -26.09375 C 10.132812 -26.394531 11.582031 -26.546875 13.15625 -26.546875 C 14.78125 -26.546875 16.191406 -26.378906 17.390625 -26.046875 C 18.597656 -25.710938 19.601562 -25.144531 20.40625 -24.34375 C 21.132812 -23.613281 21.625 -22.710938 21.875 -21.640625 C 22.125 -20.578125 22.25 -19.128906 22.25 -17.296875 L 22.25 -3.703125 C 22.25 -2.898438 22.320312 -2.332031 22.46875 -2 C 22.625 -1.664062 22.914062 -1.5 23.34375 -1.5 C 23.84375 -1.5 24.445312 -1.78125 25.15625 -2.34375 L 25.65625 -1.5 C 24.15625 -0.269531 22.320312 0.34375 20.15625 0.34375 C 18.320312 0.34375 17.035156 -0.0195312 16.296875 -0.75 C 15.566406 -1.476562 15.1875 -2.460938 15.15625 -3.703125 C 13.488281 -1.003906 11.035156 0.34375 7.796875 0.34375 Z M 11.65625 -2.84375 C 12.945312 -2.84375 14.078125 -3.53125 15.046875 -4.90625 L 15.046875 -15.15625 C 14.648438 -14.488281 13.800781 -13.753906 12.5 -12.953125 C 11.195312 -12.117188 10.210938 -11.285156 9.546875 -10.453125 C 8.878906 -9.617188 8.546875 -8.414062 8.546875 -6.84375 C 8.546875 -5.476562 8.828125 -4.46875 9.390625 -3.8125 C 9.960938 -3.164062 10.71875 -2.84375 11.65625 -2.84375 Z M 11.65625 -2.84375 "/></g></g></g><g clip-path="url(#c38bbc2a95)"><path fill="#f1efe7" d="M 57.050781 108.589844 L 317.792969 108.589844 L 317.792969 133.199219 L 57.050781 133.199219 Z M 57.050781 108.589844 " fill-opacity="1" fill-rule="nonzero"/></g><g fill="#060606" fill-opacity="1"><g transform="translate(144.882797, 125.194264)"><g><path d="M 1.1875 -8.984375 L 4.859375 -8.984375 C 6.203125 -8.984375 7.3125 -8.554688 8.1875 -7.703125 C 9.0625 -6.859375 9.5 -5.785156 9.5 -4.484375 C 9.5 -3.191406 9.054688 -2.117188 8.171875 -1.265625 C 7.296875 -0.421875 6.179688 0 4.828125 0 L 1.1875 0 Z M 2.6875 -7.625 L 2.6875 -1.359375 L 4.90625 -1.359375 C 5.78125 -1.359375 6.507812 -1.648438 7.09375 -2.234375 C 7.6875 -2.828125 7.984375 -3.578125 7.984375 -4.484375 C 7.984375 -5.390625 7.679688 -6.140625 7.078125 -6.734375 C 6.472656 -7.328125 5.726562 -7.625 4.84375 -7.625 Z M 2.6875 -7.625 "/></g></g></g><g fill="#060606" fill-opacity="1"><g transform="translate(161.87562, 125.194264)"><g><path d="M 7.59375 -7.625 L 2.6875 -7.625 L 2.6875 -5.203125 L 7.078125 -5.203125 L 7.078125 -3.828125 L 2.6875 -3.828125 L 2.6875 -1.359375 L 7.75 -1.359375 L 7.75 0 L 1.1875 0 L 1.1875 -8.984375 L 7.59375 -8.984375 Z M 7.59375 -7.625 "/></g></g></g><g fill="#060606" fill-opacity="1"><g transform="translate(177.342831, 125.194264)"><g><path d="M 4.125 -9.046875 C 5.289062 -9.046875 6.34375 -8.738281 7.28125 -8.125 L 6.640625 -6.78125 C 5.722656 -7.34375 4.847656 -7.625 4.015625 -7.625 C 3.554688 -7.625 3.195312 -7.539062 2.9375 -7.375 C 2.675781 -7.207031 2.546875 -6.972656 2.546875 -6.671875 C 2.546875 -6.378906 2.664062 -6.128906 2.90625 -5.921875 C 3.144531 -5.710938 3.441406 -5.554688 3.796875 -5.453125 C 4.160156 -5.359375 4.550781 -5.234375 4.96875 -5.078125 C 5.394531 -4.929688 5.785156 -4.773438 6.140625 -4.609375 C 6.503906 -4.441406 6.800781 -4.179688 7.03125 -3.828125 C 7.269531 -3.472656 7.390625 -3.046875 7.390625 -2.546875 C 7.390625 -1.753906 7.070312 -1.125 6.4375 -0.65625 C 5.8125 -0.1875 5 0.046875 4 0.046875 C 3.3125 0.046875 2.644531 -0.078125 2 -0.328125 C 1.363281 -0.585938 0.804688 -0.9375 0.328125 -1.375 L 0.984375 -2.6875 C 1.441406 -2.257812 1.941406 -1.929688 2.484375 -1.703125 C 3.023438 -1.484375 3.539062 -1.375 4.03125 -1.375 C 4.5625 -1.375 4.972656 -1.46875 5.265625 -1.65625 C 5.554688 -1.851562 5.703125 -2.125 5.703125 -2.46875 C 5.703125 -2.769531 5.582031 -3.023438 5.34375 -3.234375 C 5.101562 -3.441406 4.800781 -3.59375 4.4375 -3.6875 C 4.082031 -3.789062 3.695312 -3.910156 3.28125 -4.046875 C 2.863281 -4.191406 2.472656 -4.34375 2.109375 -4.5 C 1.753906 -4.664062 1.457031 -4.921875 1.21875 -5.265625 C 0.976562 -5.617188 0.859375 -6.046875 0.859375 -6.546875 C 0.859375 -7.304688 1.15625 -7.910156 1.75 -8.359375 C 2.351562 -8.816406 3.144531 -9.046875 4.125 -9.046875 Z M 4.125 -9.046875 "/></g></g></g><g fill="#060606" fill-opacity="1"><g transform="translate(192.374162, 125.194264)"><g><path d="M 2.6875 0 L 1.1875 0 L 1.1875 -8.984375 L 2.6875 -8.984375 Z M 2.6875 0 "/></g></g></g><g fill="#060606" fill-opacity="1"><g transform="translate(203.303011, 125.194264)"><g><path d="M 7.328125 -4.40625 L 8.640625 -4.40625 L 8.640625 -1.109375 C 8.179688 -0.753906 7.632812 -0.46875 7 -0.25 C 6.375 -0.0390625 5.757812 0.0625 5.15625 0.0625 C 3.832031 0.0625 2.710938 -0.375 1.796875 -1.25 C 0.890625 -2.125 0.4375 -3.203125 0.4375 -4.484375 C 0.4375 -5.765625 0.894531 -6.835938 1.8125 -7.703125 C 2.738281 -8.578125 3.882812 -9.015625 5.25 -9.015625 C 5.882812 -9.015625 6.503906 -8.898438 7.109375 -8.671875 C 7.722656 -8.453125 8.253906 -8.148438 8.703125 -7.765625 L 7.84375 -6.640625 C 7.101562 -7.328125 6.238281 -7.671875 5.25 -7.671875 C 4.332031 -7.671875 3.554688 -7.363281 2.921875 -6.75 C 2.285156 -6.132812 1.96875 -5.378906 1.96875 -4.484375 C 1.96875 -3.585938 2.285156 -2.832031 2.921875 -2.21875 C 3.566406 -1.601562 4.347656 -1.296875 5.265625 -1.296875 C 5.953125 -1.296875 6.640625 -1.5 7.328125 -1.90625 Z M 7.328125 -4.40625 "/></g></g></g><g fill="#060606" fill-opacity="1"><g transform="translate(219.962501, 125.194264)"><g><path d="M 8.96875 0 L 7.484375 0 L 2.6875 -6.4375 L 2.6875 0 L 1.1875 0 L 1.1875 -8.984375 L 2.671875 -8.984375 L 7.484375 -2.53125 L 7.484375 -8.984375 L 8.96875 -8.984375 Z M 8.96875 0 "/></g></g></g></svg>